<svg width="101" height="38" viewBox="0 0 101 38" fill="none" xmlns="http://www.w3.org/2000/svg">
<path d="M17.2084 7.89453H21.575L23.5096 28.9397L25.4028 7.89453H29.5484L26.0523 34.2971H20.7045L17.2084 7.89453Z" fill="#BAF400"/>
<path d="M34.6337 7.89453H43.3532V10.9854H39.0003V17.0297H42.607V19.887H39.0003V31.2063H43.5052V34.2971H34.6337V7.89453Z" fill="#BAF400"/>
<path d="M48.7838 7.89453H53.496L57.2822 25.3543V7.89453H60.8474V34.2971H56.4531L52.3905 17.0983V34.2971H48.7838V7.89453Z" fill="#BAF400"/>
<path d="M66.969 7.89453H75.6885V10.9854H71.3218V17.0297H74.9285V19.887H71.3218V31.2063H75.8405V34.2971H66.969V7.89453Z" fill="#BAF400"/>
<path d="M80.4698 7.89453H84.8365L86.0526 27.511L87.7661 7.89453H92.2018L93.9015 27.5522L95.1175 7.89453H99.1388L96.4165 34.2971H91.5938L89.8527 13.9251L88.1392 34.2971H83.2059L80.4698 7.89453Z" fill="#BAF400"/>
<path d="M11.6395 1.85059H3.77673V4.73536H11.6395V1.85059Z" fill="#BAF400"/>
<path d="M10.7965 7.89453H4.61961L1.3446 34.2971H5.44872L5.94619 29.3243L6.2502 26.2335L7.57678 12.4278L8.90337 26.2335L9.20737 29.3243L9.70484 34.2971H14.0577L10.7965 7.89453Z" fill="#BAF400"/>
</svg>
